<svg xmlns="http://www.w3.org/2000/svg" viewBox="0 0 480 440" width="480" height="440" style="width:100%;max-width:600px;height:auto" role="img" aria-label="Corte de uma lateral do ressalto inteiro em V, com assento inclinado no corpo e lábios TPU.">
<title>Ressalto inteiro em V · corte local das laterais inclinadas</title>
<defs><mask id="door-v-cut"><rect width="480" height="440" fill="white"/><polygon points="170.5,120.5 174.0,127.5 182.8,145.0 186.2,152.0 223.0,152.0 240.5,145.0 231.8,127.5 207.2,120.5" fill="black"/></mask></defs>
<rect x="125" y="40" width="280" height="49" fill="#729daf"/>
<polygon points="182.8,89.0 315.8,355.0 405.0,355.0 405.0,89.0" fill="#729daf" mask="url(#door-v-cut)"/>
<polygon points="141.6,120.5 195.0,250.0 195.0,257.0 230.0,257.0 230.0,250.0 176.6,120.5" fill="#c5d4df"/>
<polygon points="191.5,124.0 194.1,129.2 201.1,143.2 203.8,148.5 219.5,148.5 234.4,143.2 227.4,129.2 207.2,124.0" fill="#45ae89"/><polygon points="181.0,131.0 165.2,127.5 155.6,122.2 176.6,122.2 186.2,127.5 202.0,131.0" fill="#45ae89"/><polygon points="184.5,138.0 181.0,159.0 184.5,194.0 205.5,194.0 202.0,159.0 205.5,138.0" fill="#45ae89"/>
<g fill="currentColor" font-size="16" text-anchor="middle" font-family="sans-serif">
<text x="240" y="24">Ressalto inteiro em V · fundo plano</text>
<text x="130" y="285">Corpo</text><text x="352" y="365">Porta</text>
<text x="240" y="395">Laterais da porta: 26,6° em relação ao eixo</text>
<text x="240" y="422">Aperto comprime TPU · forma livre mostrada</text></g></svg>